<?xml version="1.0" encoding="UTF-8" standalone="no"?>
<svg
   width="29pt"
   height="40pt"
   version="1.1"
   viewBox="0 0 29 40"
   id="svg12"
   sodipodi:docname="logo.svg"
   inkscape:version="1.3.2 (091e20e, 2023-11-25)"
   inkscape:export-filename="logo.png"
   inkscape:export-xdpi="248.25993"
   inkscape:export-ydpi="248.25993"
   xmlns:inkscape="http://www.inkscape.org/namespaces/inkscape"
   xmlns:sodipodi="http://sodipodi.sourceforge.net/DTD/sodipodi-0.dtd"
   xmlns="http://www.w3.org/2000/svg"
   xmlns:svg="http://www.w3.org/2000/svg">
  <defs
     id="defs12" />
  <sodipodi:namedview
     id="namedview12"
     pagecolor="#ffffff"
     bordercolor="#000000"
     borderopacity="0.25"
     inkscape:showpageshadow="2"
     inkscape:pageopacity="0.0"
     inkscape:pagecheckerboard="0"
     inkscape:deskcolor="#d1d1d1"
     inkscape:document-units="pt"
     inkscape:zoom="15.440248"
     inkscape:cx="21.243182"
     inkscape:cy="22.376584"
     inkscape:window-width="1248"
     inkscape:window-height="762"
     inkscape:window-x="2142"
     inkscape:window-y="25"
     inkscape:window-maximized="0"
     inkscape:current-layer="svg12"
     inkscape:export-bgcolor="#ffffff00" />
  <path
     d="m 12.656838,19.989092 v 19.926"
     fill="none"
     stroke="#221e1f"
     stroke-miterlimit="10"
     stroke-width="0.99626"
     id="path1" />
  <path
     d="M 12.656838,0.06309251 V 19.989092"
     fill="none"
     stroke="#221e1f"
     stroke-miterlimit="10"
     stroke-width="0.99626"
     id="path2" />
  <path
     d="m 12.656838,6.9107922 -2.4883,6.2265998 2.4883,-1.2422 2.4922,1.2422 z"
     fill="#221e1f"
     id="path3" />
  <path
     d="M 10.664838,19.989092 V 0.06309251"
     fill="none"
     stroke="#221e1f"
     stroke-miterlimit="10"
     stroke-width="0.99626"
     id="path4" />
  <path
     d="m 10.664838,39.914652 v -19.926"
     fill="none"
     stroke="#221e1f"
     stroke-miterlimit="10"
     stroke-width="0.99626"
     id="path5" />
  <path
     d="m 10.664838,33.063092 2.4922,-6.2266 -2.4922,1.2461 -2.4882991,-1.2461 z"
     fill="#221e1f"
     id="path6" />
  <g
     fill="none"
     stroke="#221e1f"
     stroke-miterlimit="10"
     stroke-width="9.9626"
     id="g12"
     transform="translate(0.00483892,0.06309251)">
    <path
       transform="matrix(0.1,0,0,-0.1,0,40)"
       d="m 162.66,66.016 c 8.0859,2.1875 14.805,-17.969 -7.0703,-21.992 -18.555,-3.4375 -27.031,2.3047 -29.062,7.2656"
       id="path7" />
    <path
       transform="matrix(0.1,0,0,-0.1,0,40)"
       d="m 162.66,66.016 c -8.125,-2.1484 -3.5938,-24.336 24.883,-12.539 28.477,11.797 16.016,30.664 8.75,26.484 -7.2656,-4.1797 2.8516,-24.414 27.305,-5.6641 24.414,18.75 7.5,33.75 1.5625,27.812 -5.8984,-5.8984 9.1016,-22.852 27.852,1.6016 18.75,24.453 -1.4844,34.57 -5.6641,27.305 -4.2188,-7.2656 14.688,-19.727 26.484,8.7109 11.758,28.477 -10.391,33.008 -12.578,24.922 -2.1484,-8.0859 19.297,-15.234 23.32,15.273 4.0234,30.547 -18.555,29.219 -18.555,20.82 0,-8.3594 22.578,-9.7266 18.555,20.82 -4.0234,30.547 -25.469,23.359 -23.32,15.273 2.1875,-8.0859 24.336,-3.5547 12.578,24.922 -11.797,28.438 -30.703,15.977 -26.484,8.7109 4.1797,-7.2266 24.414,2.8906 5.6641,27.305 -18.75,24.453 -33.75,7.5391 -27.852,1.6016 5.9375,-5.9375 22.852,9.0625 -1.5625,27.852 -24.453,18.75 -34.57,-1.4844 -27.305,-5.7031 7.2656,-4.1797 19.727,14.688 -8.75,26.484 -28.477,11.797 -33.008,-10.352 -24.883,-12.539 8.0859,-2.1484 14.805,17.969 -7.0703,21.992 -18.555,3.4766 -27.031,-2.3047 -29.062,-7.2656"
       id="path8" />
    <path
       transform="matrix(0.1,0,0,-0.1,0,40)"
       d="m 82.969,335.74 c -7.2656,-2.8516 -17.891,16.836 3.8672,22.07 17.344,4.1406 24.883,-2.8125 26.289,-7.9297"
       id="path9" />
    <path
       transform="matrix(0.1,0,0,-0.1,0,40)"
       d="m 82.969,335.74 c 7.2656,2.8516 0.97656,26.992 -24.492,9.375 -25.469,-17.578 -5.1172,-31.992 0.11719,-26.211 5.23439,5.781 -11.094,24.648 -26.094,-2.4609 -15,-27.109 9.6484,-30.977 11.797,-23.438 2.1094,7.5 -20.938,17.109 -22.266,-13.867 -1.3672,-30.938 22.422,-23.398 20.938,-15.703 -1.4453,7.6562 -26.328,5.9766 -13.75,-22.305 12.539,-28.32 30.508,-10.977 25.781,-4.7656 -4.7266,6.2109 -26.25,-6.3672 -2.4219,-26.094 23.867,-19.766 32.227,3.7109 25.234,7.1875 -6.9922,3.4766 -19.297,-15.195 1.9141,-22.305 16.914,-5.6641 25.039,0.625 26.875,5.5859"
       id="path10" />
    <path
       transform="matrix(0.1,0,0,-0.1,0,40)"
       d="m 35.195,75.664 c 5,7.4609 -11.602,18.516 -22.539,2.1094 C 3.6716,64.2964 3.8279,55.5464 6.9919,51.2894"
       id="path11" />
    <path
       transform="matrix(0.1,0,0,-0.1,0,40)"
       d="m 35.195,75.664 c -4.9609,-7.4609 -21.562,3.5938 -6.6016,26.016 14.922,22.383 31.523,11.328 26.523,3.8672 -4.9609,-7.4609 -21.523,3.5938 -6.6016,26.016 14.922,22.383 31.523,11.328 26.523,3.8672 -4.9609,-7.4609 -21.523,3.5938 -6.6016,26.016 14.922,22.383 31.523,11.367 26.523,3.8672 -4.9609,-7.4219 -21.523,3.5938 -10.586,20.039 8.9844,13.438 17.109,16.68 22.227,15.391"
       id="path12" />
  </g>
</svg>
